<?xml version="1.0" encoding="iso-8859-1"?>
<!-- Uploaded to: SVG Repo, www.svgrepo.com, Generator: SVG Repo Mixer Tools -->
<svg xmlns="http://www.w3.org/2000/svg" xmlns:xlink="http://www.w3.org/1999/xlink" version="1.1" id="Layer_1"  viewBox="0 0 482.754 482.754" xml:space="preserve" width="512" height="512">
<g>
	<g>
		<g>
			<path style="fill:#00B7CF;" d="M219.263,468.047H14.972c-4.127,0-7.472-3.345-7.472-7.472v-10.708     c0-4.126,3.345-7.472,7.472-7.472h204.292c4.126,0,7.472,3.345,7.472,7.472v10.708     C226.735,464.702,223.39,468.047,219.263,468.047z"/>
			<path style="opacity:0.2;" d="M131.54,455.521h-28.845c-7.249,0-13.126-5.877-13.126-13.126l0,0h55.097l0,0     C144.666,449.645,138.79,455.521,131.54,455.521z"/>
			<path style="fill:#006375;" d="M195.124,324.056H39.111c-6.758,0-12.236,5.478-12.236,12.236v106.104H207.36V336.292     C207.36,329.534,201.882,324.056,195.124,324.056z"/>
			<rect x="46.887" y="344.069" style="fill:#FFFFFF;" width="140.46" height="78.314"/>
			<rect x="26.875" y="434.747" style="opacity:0.15;" width="180.485" height="7.648"/>
			<circle style="fill:#FFDF52;" cx="117.117" cy="383.226" r="9.103"/>
			<circle style="fill:#72D9E8;" cx="80.466" cy="383.226" r="9.103"/>
			<circle style="fill:#DC6C84;" cx="153.769" cy="374.148" r="9.103"/>
		</g>
		<g>
			<path style="fill:#00B7CF;" d="M219.263,158.697H14.972c-4.127,0-7.472-3.345-7.472-7.472v-10.708     c0-4.126,3.345-7.472,7.472-7.472h204.292c4.126,0,7.472,3.345,7.472,7.472v10.708     C226.735,155.352,223.39,158.697,219.263,158.697z"/>
			<path style="opacity:0.2;" d="M131.54,146.172h-28.845c-7.249,0-13.126-5.877-13.126-13.126l0,0h55.097l0,0     C144.666,140.295,138.79,146.172,131.54,146.172z"/>
			<path style="fill:#006375;" d="M195.124,14.706H39.111c-6.758,0-12.236,5.478-12.236,12.236v106.103H207.36V26.942     C207.36,20.185,201.882,14.706,195.124,14.706z"/>
			<rect x="46.887" y="34.719" style="fill:#FFFFFF;" width="140.46" height="78.314"/>
			<rect x="26.875" y="125.397" style="opacity:0.15;" width="180.485" height="7.648"/>
			<circle style="fill:#FFDF52;" cx="117.117" cy="73.876" r="9.103"/>
			<circle style="fill:#72D9E8;" cx="80.466" cy="73.876" r="9.103"/>
			<circle style="fill:#DC6C84;" cx="153.769" cy="64.798" r="9.103"/>
		</g>
		<g>
			<path style="fill:#00B7CF;" d="M467.781,468.047H263.49c-4.127,0-7.472-3.345-7.472-7.472v-10.708     c0-4.126,3.345-7.472,7.472-7.472h204.292c4.126,0,7.472,3.345,7.472,7.472v10.708     C475.253,464.702,471.908,468.047,467.781,468.047z"/>
			<path style="opacity:0.2;" d="M380.058,455.521h-28.845c-7.249,0-13.126-5.877-13.126-13.126l0,0h55.097l0,0     C393.184,449.645,387.308,455.521,380.058,455.521z"/>
			<path style="fill:#006375;" d="M443.642,324.056H287.629c-6.758,0-12.236,5.478-12.236,12.236v106.104h180.485V336.292     C455.878,329.534,450.4,324.056,443.642,324.056z"/>
			<rect x="295.405" y="344.069" style="fill:#FFFFFF;" width="140.46" height="78.314"/>
			<rect x="275.393" y="434.747" style="opacity:0.15;" width="180.485" height="7.648"/>
			<circle style="fill:#FFDF52;" cx="365.635" cy="383.226" r="9.103"/>
			<circle style="fill:#72D9E8;" cx="328.984" cy="383.226" r="9.103"/>
			<circle style="fill:#DC6C84;" cx="402.287" cy="374.148" r="9.103"/>
		</g>
		<g>
			<path style="fill:#00B7CF;" d="M467.781,158.697H263.49c-4.127,0-7.472-3.345-7.472-7.472v-10.708     c0-4.126,3.345-7.472,7.472-7.472h204.292c4.126,0,7.472,3.345,7.472,7.472v10.708     C475.253,155.352,471.908,158.697,467.781,158.697z"/>
			<path style="opacity:0.2;" d="M380.058,146.172h-28.845c-7.249,0-13.126-5.877-13.126-13.126l0,0h55.097l0,0     C393.184,140.295,387.308,146.172,380.058,146.172z"/>
			<path style="fill:#006375;" d="M443.642,14.706H287.629c-6.758,0-12.236,5.478-12.236,12.236v106.103h180.485V26.942     C455.878,20.185,450.4,14.706,443.642,14.706z"/>
			<rect x="295.405" y="34.719" style="fill:#FFFFFF;" width="140.46" height="78.314"/>
			<rect x="275.393" y="125.397" style="opacity:0.15;" width="180.485" height="7.648"/>
			<circle style="fill:#FFDF52;" cx="365.635" cy="73.876" r="9.103"/>
			<circle style="fill:#72D9E8;" cx="328.984" cy="73.876" r="9.103"/>
			<circle style="fill:#DC6C84;" cx="402.287" cy="64.798" r="9.103"/>
		</g>
	</g>
	<circle style="fill:#0098AC;" cx="241.376" cy="241.37" r="34.016"/>
	<path style="opacity:0.08;" d="M245.53,268.436c-18.787,0-34.016-15.23-34.016-34.016c0-4.926,1.055-9.602,2.939-13.829   c-4.443,5.748-7.093,12.952-7.093,20.779c0,18.787,15.23,34.016,34.017,34.016c13.861,0,25.777-8.295,31.077-20.188   C266.233,263.248,256.49,268.436,245.53,268.436z"/>
	<path d="M467.782,166.198c8.256,0,14.972-6.716,14.972-14.972v-10.708c0-8.255-6.716-14.972-14.972-14.972h-4.403V26.942   c0-10.882-8.854-19.736-19.736-19.736H287.629c-10.882,0-19.735,8.854-19.735,19.736v98.604h-4.403   c-8.256,0-14.972,6.716-14.972,14.972v10.708c0,8.255,6.716,14.972,14.972,14.972h42.453l-41.012,41.011   c-6.698-4.632-14.812-7.355-23.554-7.355c-8.742,0-16.857,2.723-23.555,7.355l-41.012-41.012h42.453   c8.255,0,14.972-6.716,14.972-14.972v-10.708c0-8.255-6.716-14.972-14.972-14.972h-4.403V26.942   c0-10.882-8.854-19.736-19.736-19.736H39.111c-10.882,0-19.736,8.854-19.736,19.736v98.604h-4.403   C6.716,125.546,0,132.262,0,140.517v10.708c0,8.255,6.716,14.972,14.972,14.972h140.626l51.618,51.618   c-4.633,6.698-7.355,14.813-7.355,23.555c0,8.742,2.723,16.857,7.355,23.555l-51.631,51.631H39.111   c-10.882,0-19.736,8.854-19.736,19.736v98.604h-4.403C6.716,434.895,0,441.612,0,449.867v10.708   c0,8.255,6.716,14.972,14.972,14.972h204.292c8.255,0,14.972-6.716,14.972-14.972v-10.708c0-8.255-6.716-14.972-14.972-14.972   h-4.403v-98.604c0-10.882-8.854-19.736-19.736-19.736h-18.327l41.024-41.024c6.698,4.632,14.813,7.355,23.555,7.355   c8.742,0,16.856-2.722,23.554-7.355l41.024,41.024h-18.327c-10.882,0-19.735,8.854-19.735,19.736v98.604h-4.403   c-8.256,0-14.972,6.716-14.972,14.972v10.708c0,8.255,6.716,14.972,14.972,14.972h204.292c8.256,0,14.972-6.716,14.972-14.972   v-10.708c0-8.255-6.716-14.972-14.972-14.972h-4.403v-98.604c0-10.882-8.854-19.736-19.736-19.736H327.169l-51.631-51.631   c4.633-6.698,7.355-14.813,7.355-23.555c0-8.742-2.723-16.857-7.355-23.555l51.619-51.618H467.782z M34.375,26.942   c0-2.611,2.125-4.736,4.736-4.736h156.013c2.611,0,4.736,2.125,4.736,4.736v98.604H34.375V26.942z M15,151.226l-0.028-10.68   l204.263-0.028l0.035,10.68L15,151.226z M219.235,449.867l0.035,10.68L15,460.575l-0.028-10.68L219.235,449.867z M195.124,331.556   c2.611,0,4.736,2.125,4.736,4.736v98.604H34.375v-98.604c0-2.611,2.125-4.736,4.736-4.736H195.124z M467.754,449.867l0.034,10.68   l-204.27,0.028l-0.028-10.68L467.754,449.867z M443.642,331.556c2.611,0,4.736,2.125,4.736,4.736v98.604H282.893v-98.604   c0-2.611,2.124-4.736,4.735-4.736H443.642z M241.377,267.887c-14.621,0-26.517-11.895-26.517-26.516   c0-14.621,11.896-26.517,26.517-26.517c14.621,0,26.517,11.896,26.517,26.517C267.893,255.991,255.998,267.887,241.377,267.887z    M282.893,26.942c0-2.611,2.124-4.736,4.735-4.736h156.014c2.611,0,4.736,2.125,4.736,4.736v98.604H282.893V26.942z    M263.518,151.226l-0.028-10.68l204.264-0.028l0.034,10.68L263.518,151.226z"/>
</g>















</svg>